# xmcd
# Copyright (C) 1995-1998 Ti Kan
#
# Track frame offsets:
#       150
#       3282
#       23169
#       38082
#       55887
#       71785
#       93469
#       113299
#       128596
#       147020
#       167176
#       186337
#       201988
#       216812
#       233294
#       251228
#       266808
#       284503
#       307237
#
# Disc length: 4225 seconds
#
# Revision: 0
# Processed by: cddbd v1.5.2PL0 Copyright (c) Steve Scherf et al.
# Submitted via: CD-Import v1.0
#
DISCID=14107f13
DTITLE=Duke - Dairy Scraps
DYEAR=1900
DGENRE=
TTITLE0=Intro 
TTITLE1=Take Advice Feat.ceekay, Shaymin
TTITLE2=Sreet Thing Feat. Pgeez
TTITLE3=Hard Days Feat. Daniela Simons
TTITLE4=Reminiscing
TTITLE5=Can It Be
TTITLE6=Don't You See
TTITLE7=With Or Aganist Me Feat.ste
TTITLE8=Ring The Changes
TTITLE9=Wish
TTITLE10=So Fa Real
TTITLE11=One Way Ticket
TTITLE12=When Its Cold Outside
TTITLE13=Beautiful Life Feat. Lester Jay
TTITLE14=Still I Ride Feat. Pgeez
TTITLE15=Irish Eyes
TTITLE16=No Mo Pain
TTITLE17=Turn On Me
TTITLE18=Nuff Said ( Skitt)
EXTD=
EXTT0=
EXTT1=
EXTT2=
EXTT3=
EXTT4=
EXTT5=
EXTT6=
EXTT7=
EXTT8=
EXTT9=
EXTT10=
EXTT11=
EXTT12=
EXTT13=
EXTT14=
EXTT15=
EXTT16=
EXTT17=
EXTT18=
PLAYORDER=
